<svg width="42" height="30" viewBox="0 0 42 30" fill="none" xmlns="http://www.w3.org/2000/svg">
<path d="M38.968 3.06269C39.7721 3.06269 40.5433 3.38213 41.1119 3.95074C41.6806 4.51935 42 5.29055 42 6.09468C42 6.89882 41.6806 7.67001 41.1119 8.23862C40.5433 8.80723 39.7721 9.12667 38.968 9.12667C38.7619 9.10975 38.5584 9.06906 38.3616 9.00539L37.5581 8.73251C37.2046 8.55385 36.8942 8.30037 36.6485 7.98968L36.1331 7.15588C35.9866 6.81044 35.9093 6.43958 35.9057 6.06436C35.9097 5.66619 35.992 5.2727 36.1481 4.90635C36.3041 4.54001 36.5308 4.20799 36.8151 3.92925C37.0995 3.65052 37.436 3.43053 37.8054 3.28184C38.1748 3.13316 38.5698 3.05869 38.968 3.06269ZM20.7761 0.0306976C21.5253 0.0306869 22.2441 0.327283 22.7753 0.855658C23.3065 1.38403 23.607 2.10121 23.611 2.85045C23.6053 3.306 23.4876 3.75314 23.2681 4.15239C23.0487 4.55163 22.7343 4.89069 22.3527 5.1396L21.8373 5.38216C21.5039 5.51421 21.1497 5.58607 20.7912 5.5944C20.426 5.58921 20.0653 5.51193 19.73 5.367L19.4268 5.18508C18.9777 4.95659 18.5992 4.61007 18.3321 4.18273C18.065 3.75538 17.9194 3.26336 17.9108 2.75949C17.9268 2.01427 18.2371 1.30567 18.774 0.788628C19.311 0.271591 20.0308 -0.011815 20.7761 0.000377736V0.0306976ZM14.7121 15.0239L19.3359 7.5652C20.2688 7.88865 21.2834 7.88865 22.2163 7.5652L26.84 14.9936L35.4509 9.64211C35.7169 9.90239 36.012 10.1313 36.3302 10.3243L32.237 22.619H9.33029L5.2371 10.3243C5.55532 10.1313 5.85034 9.90239 6.11638 9.64211L14.7121 15.0239ZM2.58411 3.53265C2.92511 3.53064 3.26311 3.59632 3.57854 3.72588C3.89396 3.85545 4.18054 4.04632 4.42167 4.28745C4.66279 4.52857 4.85367 4.81515 4.98323 5.13058C5.1128 5.446 5.17848 5.78401 5.17646 6.125C5.17183 6.44167 5.11021 6.75493 4.99455 7.04976L4.55491 7.76228C4.27672 8.09522 3.91899 8.35254 3.51487 8.51039C3.11074 8.66825 2.6733 8.72152 2.24311 8.66528C1.81291 8.60904 1.40387 8.4451 1.05391 8.18866C0.703943 7.93222 0.424385 7.59158 0.241143 7.19831C0.0579016 6.80505 -0.023092 6.37189 0.00566986 5.93898C0.0344317 5.50608 0.172018 5.08744 0.405675 4.72187C0.639333 4.3563 0.961499 4.05564 1.34231 3.84776C1.72312 3.63987 2.15025 3.53148 2.58411 3.53265ZM32.3431 29.2136H9.25449V25.9087H32.3431V29.2136Z" fill="#025E5D"/>
</svg>
